<?xml version="1.0" standalone="no"?>
<!DOCTYPE svg PUBLIC "-//W3C//DTD SVG 20010904//EN"
 "http://www.w3.org/TR/2001/REC-SVG-20010904/DTD/svg10.dtd">
<svg version="1.0" xmlns="http://www.w3.org/2000/svg"
 width="347.000000pt" height="436.000000pt" viewBox="0 0 347.000000 436.000000"
 preserveAspectRatio="xMidYMid meet">

<g transform="translate(0.000000,436.000000) scale(0.100000,-0.100000)"
fill="#000000" stroke="none">
<path d="M202 4310 l-164 -5 -1 -380 -2 -380 490 -5 490 -5 3 -507 2 -508
-264 0 c-202 0 -265 -3 -268 -12 -2 -7 -2 -129 0 -270 l4 -258 264 0 264 0 0
-970 0 -970 405 0 405 0 0 970 0 970 585 0 585 0 0 270 0 270 -585 0 -585 0 0
510 0 510 795 0 795 0 0 385 0 385 -1022 0 c-563 0 -1250 1 -1528 2 -278 2
-578 1 -668 -2z"/>
</g>
</svg>
